<svg width="210" height="20" viewBox="0 0 210 20" fill="none" xmlns="http://www.w3.org/2000/svg">
<path fill-rule="evenodd" clip-rule="evenodd" d="M0.000488281 9.99992C0.000488281 4.47712 4.4776 0 10.0004 0H48.1292C52.6093 0 56.4013 2.94618 57.6734 7.00678C57.88 7.66606 58.4619 8.16325 59.1528 8.16325C59.8437 8.16325 60.4256 7.66608 60.6322 7.0068C61.9044 2.94627 65.6963 0.00016285 70.1764 0.00016285H200.001C205.524 0.00016285 210.001 4.47728 210.001 10.0001C210.001 15.5229 205.524 20 200.001 20H70.1764C65.6963 20 61.9043 17.0538 60.6321 12.9932C60.4256 12.3339 59.8436 11.8367 59.1528 11.8367C58.4619 11.8367 57.88 12.3339 57.6734 12.9931C56.4012 17.0537 52.6093 19.9998 48.1292 19.9998H10.0004C4.47759 19.9998 0.000488281 15.5227 0.000488281 9.99992ZM119.503 14.5346C118.8 14.5346 118.251 14.4361 117.855 14.2366C117.459 14.0383 117.182 13.7415 117.024 13.3437C116.866 12.9472 116.787 12.457 116.787 11.8708V8.55421C116.787 7.60222 116.999 6.90024 117.426 6.44949C117.85 5.99874 118.543 5.77214 119.504 5.77214H123.972C124.655 5.77214 125.176 5.80908 125.538 5.88421C125.899 5.9581 126.08 6.03569 126.08 6.11451L125.784 7.34852C125.616 7.31897 125.118 7.28695 124.292 7.25123C123.465 7.21675 122.266 7.1995 120.693 7.1995H119.935C119.144 7.1995 118.748 7.55173 118.748 8.25618V12.0494C118.748 12.3868 118.835 12.6467 119.008 12.8302C119.181 13.0137 119.491 13.1048 119.935 13.1048H120.544C122.187 13.1048 123.462 13.0876 124.367 13.0531C125.273 13.0186 125.835 12.9816 126.052 12.941L126.661 13.9225C126.661 13.9718 126.579 14.0469 126.416 14.1455C126.253 14.2452 125.953 14.3339 125.518 14.4127C125.082 14.4915 124.455 14.5322 123.633 14.5322H119.507L119.503 14.5346ZM86.4009 14.5344V6.97885L86.2526 5.77439H92.8287C93.4623 5.77439 93.9588 5.85937 94.3207 6.02686C94.6814 6.19558 94.9494 6.41603 95.1223 6.6882C95.2953 6.96161 95.4064 7.25102 95.4558 7.55891C95.5052 7.8668 95.5299 8.15868 95.5299 8.43701V9.3151C95.5299 9.54294 95.4954 9.7991 95.4262 10.0811C95.357 10.3632 95.2286 10.6366 95.0408 10.8989C94.8531 11.1612 94.5801 11.3804 94.2244 11.5528C93.8687 11.7265 93.403 11.8127 92.8287 11.8127H91.3143C90.6906 11.8127 90.1088 11.7979 89.5703 11.7684C89.0305 11.7388 88.6279 11.7142 88.3611 11.6945V14.5357H86.4021L86.4009 14.5344ZM88.3598 10.3841H92.3976C92.8435 10.3841 93.1498 10.2745 93.3178 10.0565C93.4858 9.83851 93.5697 9.57619 93.5697 9.2683V8.33109C93.5697 8.01335 93.4858 7.7461 93.3178 7.52812C93.1498 7.31014 92.8472 7.20053 92.4124 7.20053H88.3598V10.3841ZM72.2385 14.5346C71.5654 14.5346 71.0713 14.505 70.7539 14.4459C70.4377 14.3868 70.2783 14.3166 70.2783 14.2378L70.8724 12.9434C71.0997 12.9828 71.6666 13.0198 72.572 13.0555C73.4774 13.09 74.7224 13.1072 76.3059 13.1072H76.5875C77.0124 13.1072 77.315 13.0309 77.4929 12.8769C77.6708 12.723 77.7597 12.4631 77.7597 12.0961V11.7981C77.7597 11.4508 77.688 11.2032 77.5448 11.0542C77.4015 10.9052 77.0816 10.8313 76.5875 10.8313H73.1439C72.1447 10.8313 71.4171 10.6454 70.9614 10.2734C70.5056 9.9015 70.2783 9.29434 70.2783 8.45073V8.21304C70.2783 7.77707 70.3598 7.37559 70.5229 7.00858C70.6859 6.64158 70.9651 6.34724 71.3616 6.1231C71.7568 5.90019 72.3015 5.78812 72.9944 5.78812H77.0322C77.7053 5.78812 78.2488 5.8226 78.6651 5.8928C79.0813 5.96177 79.2888 6.03689 79.2888 6.11571L78.9924 7.36573C78.7355 7.33618 78.1512 7.30416 77.2409 7.26844C76.3306 7.23396 75.1078 7.21672 73.5737 7.21672L73.4107 7.20194C72.9549 7.20194 72.6486 7.2943 72.4905 7.47657C72.3324 7.66007 72.2472 7.89038 72.2385 8.16871V8.42117C72.2385 8.74877 72.3299 8.99384 72.5127 9.15764C72.6955 9.32144 73.0006 9.40272 73.4255 9.40272H76.7209C77.3546 9.40272 77.8943 9.46676 78.339 9.59607C78.7849 9.72539 79.1258 9.96061 79.3629 10.303C79.6001 10.6454 79.7187 11.1491 79.7187 11.8129V12.0506C79.7187 12.7944 79.5284 13.3942 79.1468 13.8499C78.7651 14.3055 78.1055 14.5346 77.1656 14.5346H72.2385ZM104.332 5.78816L99.9828 14.5346H102.149L103.114 12.6454H108.429L109.305 14.5346H111.591L107.257 5.78816H104.332ZM107.88 11.1885H103.651L105.699 7.12809H105.847L107.88 11.1885ZM132.596 5.78816V14.5346H140.701C141.355 14.5346 141.815 14.5174 142.082 14.4829C142.349 14.4472 142.482 14.4103 142.482 14.3708L141.888 13.106H134.555V10.7415H140.107V9.26853H134.555V7.21553H141.829V5.78816H132.596ZM151.403 14.5344L151.389 7.20179H147.529V5.77442H157.237V7.20179H153.362V14.5344H151.403ZM163.175 5.78816V14.5346H165.134V5.78816H163.175ZM172.111 14.5347V6.97916L171.963 5.78948H174.219L177.574 11.7391L181.047 5.78948H183.051V14.536H181.092V8.98782H180.929L180.35 10.2822L178.48 13.6443H176.684L174.814 10.2822L174.219 8.98782H174.071V14.536H172.112L172.111 14.5347ZM189.88 5.78816V14.5346H197.985C198.639 14.5346 199.099 14.5174 199.366 14.4829C199.633 14.4472 199.766 14.4103 199.766 14.3708L199.172 13.106H191.839V10.7415H197.391V9.26853H191.839V7.21553H199.113V5.78816H189.88ZM13.0921 7.6498V9.76483V9.76596L10.2638 10.9046L13.0921 12.049V14.1663L7.57437 11.9934H7.56299V9.82386H7.57437L13.0921 7.6498ZM45.2374 14.0539V11.94L48.0634 10.8025L45.2374 9.66493V7.5499L50.7471 9.72169H50.7607V11.8935H50.7471L45.2374 14.0539ZM42.8713 4.56072L39.6309 15.5763H41.5551L44.7956 4.56072H42.8713ZM22.0017 9.5889C22.0359 8.72722 21.7478 7.88711 21.2001 7.25022H21.2013C20.9303 6.94937 20.6012 6.71323 20.2369 6.5577C19.8725 6.40217 19.482 6.33178 19.0891 6.34881C18.6679 6.32951 18.2477 6.40217 17.8538 6.56111C17.4598 6.72004 17.1 6.96299 16.7983 7.27406V6.57814H14.874V14.281H16.7983V10.8695C16.7983 9.09959 17.4006 8.21521 18.6052 8.21521C18.8068 8.20613 19.0083 8.24586 19.1939 8.33101C19.3784 8.41615 19.5434 8.54557 19.6755 8.70792C19.9568 9.07915 20.1002 9.54575 20.0775 10.0203V14.281H22.0017V9.5889ZM24.4511 3.37449V14.3901H26.3754V3.37449H24.4511ZM35.6421 13.9859H37.2464L39.946 6.26945H37.8897L36.3742 10.8991L34.8132 6.26945H33.3125L31.7515 10.8844L30.236 6.26945H28.1797L30.877 13.9859H32.4802L34.0686 9.44823L35.6421 13.9859Z" fill="url(#paint0_linear_206_527)"/>
<defs>
<linearGradient id="paint0_linear_206_527" x1="3.48003" y1="-6.6526" x2="236.327" y2="-6.6526" gradientUnits="userSpaceOnUse">
<stop offset="0.251308" stop-color="#996DFF"/>
<stop offset="0.623787" stop-color="#FF876E"/>
<stop offset="1" stop-color="#FFD072"/>
</linearGradient>
</defs>
</svg>
